<svg xmlns="http://www.w3.org/2000/svg" viewBox="0 0 400 400" enable-background="new 0 0 400 400"><style type="text/css">.st0{fill-rule:evenodd;clip-rule:evenodd;fill:#FFFFFF;} .st1{fill:#F0821B;} .st2{fill:#FFFFFF;}</style><path class="st0" d="M268.1 222.2v-107.4c0-1.9-.7-3.7-2.1-5.1-1.3-1.3-3.1-2.1-5-2.1-16.7 0-47.1 3.9-62.9 29.4-.6 1-1 2.3-1 3.6v112.4c19.3-20.2 47.2-23.6 63.9-23.7 3.9 0 7.1-3.2 7.1-7.1zm-147.3 13c16.5 0 50.6 3.5 69.8 23.2v13.9c-21-22-57.9-25.8-76.1-25.8-4.3 0-10-3.5-10-7.8v-117.3c0-2.7 6.1-7.5 9.1-7.8v114.4c0 3.9 3.2 7.2 7.2 7.2zm-1.2-13v-107.4c0-1.9.7-3.7 2.1-5.1 1.3-1.3 3.1-2.1 5-2.1 16.7 0 47.1 3.9 62.9 29.4.6 1 1 2.3 1 3.6v112.4c-19.3-20.2-47.2-23.6-63.9-23.7-3.9 0-7.1-3.2-7.1-7.1zm147.3 13c-16.5 0-50.6 3.5-69.8 23.2v13.9c21-22 57.9-25.8 76.1-25.8 4.3 0 10-3.5 10-7.8v-117.3c0-2.7-6.1-7.5-9.1-7.8v114.4c-.1 3.9-3.3 7.2-7.2 7.2z"/><path class="st1" d="M8.7 244.1v-136.5h21.5c12.5 0 21.6.8 27.4 2.4 8.2 2.2 14.7 6.2 19.6 12.1 4.8 5.9 7.3 12.8 7.3 20.8 0 5.2-1.1 9.9-3.3 14.2-2.2 4.2-5.8 8.2-10.7 11.9 8.3 3.9 14.3 8.7 18.1 14.6 3.8 5.8 5.7 12.7 5.7 20.7 0 7.7-2 14.6-6 20.9-4 6.3-9.1 11-15.4 14.1-6.3 3.1-14.9 4.7-26 4.7h-38.2zm25.9-111.8v28.9h5.8c6.5 0 11.3-1.3 14.4-4 3.1-2.7 4.7-6.3 4.7-10.9 0-4.3-1.5-7.7-4.5-10.2-3-2.5-7.5-3.8-13.6-3.8h-6.8zm0 52.1v35h6.6c10.9 0 18.3-1.4 22.1-4.1 3.8-2.7 5.7-6.7 5.7-11.9 0-5.9-2.2-10.5-6.7-13.9-4.5-3.4-11.9-5.1-22.2-5.1h-5.5z"/><path class="st2" d="M8.7 281.7h4.3c1.7 0 3.1.2 4 .6.9.4 1.7 1 2.2 1.9.5.8.8 1.8.8 2.8 0 1-.2 1.8-.7 2.6-.5.8-1.2 1.4-2.1 1.9 1.1.4 2 .8 2.6 1.4.6.5 1.1 1.1 1.4 1.9.3.7.5 1.5.5 2.4 0 1.7-.6 3.2-1.9 4.4-1.3 1.2-3 1.8-5.1 1.8h-6v-21.7zm2.1 2.2v7h1.2c1.5 0 2.6-.1 3.3-.4.7-.3 1.3-.7 1.7-1.3.4-.6.6-1.3.6-2 0-1-.3-1.8-1-2.3-.7-.6-1.8-.8-3.3-.8h-2.5zm0 9.1v8.4h2.7c1.6 0 2.8-.2 3.5-.5.7-.3 1.3-.8 1.8-1.5.4-.7.7-1.4.7-2.1 0-1-.3-1.8-.9-2.5-.6-.7-1.5-1.2-2.6-1.5-.7-.2-2-.3-3.9-.3h-1.3zm22.5-6c2.5 0 4.5.9 6.2 2.7 1.5 1.6 2.2 3.6 2.2 5.8 0 2.2-.8 4.2-2.3 5.9-1.6 1.7-3.6 2.5-6 2.5-2.5 0-4.5-.8-6.1-2.5-1.6-1.7-2.4-3.6-2.4-5.9 0-2.2.7-4.1 2.2-5.8 1.7-1.8 3.7-2.7 6.2-2.7zm0 2c-1.7 0-3.2.6-4.4 1.9-1.2 1.3-1.9 2.8-1.9 4.6 0 1.2.3 2.2.8 3.2.6 1 1.3 1.8 2.3 2.3 1 .6 2 .8 3.2.8 1.1 0 2.2-.3 3.2-.8s1.7-1.3 2.3-2.3c.6-1 .8-2.1.8-3.2 0-1.8-.6-3.3-1.9-4.6-1.2-1.2-2.7-1.9-4.4-1.9zm19.9-2c2.5 0 4.5.9 6.2 2.7 1.5 1.6 2.2 3.6 2.2 5.8 0 2.2-.8 4.2-2.4 5.9-1.6 1.7-3.6 2.5-6 2.5-2.5 0-4.5-.8-6.1-2.5-1.6-1.7-2.4-3.6-2.4-5.9 0-2.2.7-4.1 2.2-5.8 1.7-1.8 3.8-2.7 6.3-2.7zm0 2c-1.7 0-3.2.6-4.4 1.9-1.2 1.3-1.9 2.8-1.9 4.6 0 1.2.3 2.2.8 3.2.6 1 1.3 1.8 2.3 2.3 1 .6 2 .8 3.2.8 1.1 0 2.2-.3 3.2-.8s1.7-1.3 2.3-2.3c.6-1 .8-2.1.8-3.2 0-1.8-.6-3.3-1.9-4.6-1.2-1.2-2.7-1.9-4.4-1.9zm12.2-7.8h2.1v12.7l7.5-6.5h3l-8.9 7.7 9.4 8.4h-2.9l-8.1-7.3v7.3h-2.1v-22.3zm21.7 18.2l1.8-1.1c1.3 2.4 2.8 3.6 4.5 3.6.7 0 1.4-.2 2.1-.5.6-.3 1.1-.8 1.5-1.4.3-.6.5-1.2.5-1.8 0-.7-.2-1.4-.7-2.1-.7-1-1.9-2.1-3.7-3.5-1.8-1.4-3-2.4-3.4-3-.8-1-1.2-2.1-1.2-3.3 0-.9.2-1.8.7-2.6.5-.8 1.1-1.4 1.9-1.8.8-.5 1.7-.7 2.7-.7 1 0 2 .3 2.9.8.9.5 1.8 1.4 2.8 2.8l-1.8 1.3c-.8-1.1-1.5-1.8-2.1-2.1-.6-.3-1.2-.5-1.9-.5-.9 0-1.6.3-2.2.8-.6.5-.8 1.2-.8 2 0 .5.1.9.3 1.4.2.4.6.9 1.1 1.4.3.3 1.2 1 2.8 2.2 1.9 1.4 3.2 2.6 3.9 3.7.7 1.1 1.1 2.2 1.1 3.3 0 1.6-.6 2.9-1.8 4.1-1.2 1.2-2.7 1.7-4.4 1.7-1.3 0-2.5-.4-3.6-1.1-1.1-.7-2.1-1.9-3-3.6zm18.7-18h2.1v6h3.3v1.8h-3.3v14.3h-2.1v-14.3h-2.8v-1.8h2.8v-6zm16.1 5.6c2.5 0 4.5.9 6.2 2.7 1.5 1.6 2.2 3.6 2.2 5.8 0 2.2-.8 4.2-2.3 5.9-1.6 1.7-3.6 2.5-6 2.5-2.5 0-4.5-.8-6.1-2.5-1.6-1.7-2.4-3.6-2.4-5.9 0-2.2.7-4.1 2.2-5.8 1.7-1.8 3.8-2.7 6.2-2.7zm0 2c-1.7 0-3.2.6-4.4 1.9-1.2 1.3-1.9 2.8-1.9 4.6 0 1.2.3 2.2.8 3.2.6 1 1.3 1.8 2.3 2.3 1 .6 2 .8 3.2.8 1.1 0 2.2-.3 3.2-.8s1.7-1.3 2.3-2.3c.6-1 .8-2.1.8-3.2 0-1.8-.6-3.3-1.9-4.6-1.2-1.2-2.7-1.9-4.4-1.9zm11.5-1.6h2.1v2.4c.6-.9 1.3-1.6 2-2.1s1.4-.7 2.2-.7c.6 0 1.2.2 1.8.5l-1.1 1.7c-.4-.2-.8-.3-1.1-.3-.7 0-1.4.3-2 .8-.6.6-1.1 1.5-1.5 2.6-.3.9-.4 2.8-.4 5.6v5.4h-2.1v-15.9zm23.5 10.8l1.7.9c-.6 1.1-1.2 2-2 2.7-.7.7-1.6 1.2-2.5 1.6-.9.4-2 .5-3.2.5-2.6 0-4.7-.9-6.2-2.6-1.5-1.7-2.2-3.7-2.2-5.8 0-2 .6-3.9 1.9-5.4 1.6-2 3.7-3 6.4-3 2.8 0 5 1 6.6 3.1 1.2 1.5 1.8 3.3 1.8 5.5h-14.5c0 1.9.6 3.4 1.8 4.6 1.2 1.2 2.6 1.8 4.3 1.8.8 0 1.6-.1 2.4-.4.8-.3 1.4-.7 2-1.1.4-.6 1-1.4 1.7-2.4zm0-4.4c-.3-1.1-.7-2-1.2-2.6-.5-.7-1.2-1.2-2.1-1.6-.9-.4-1.8-.6-2.7-.6-1.6 0-3 .5-4.1 1.5-.8.7-1.5 1.8-1.9 3.3h12zm31.3 1.7l1.5 1.6c-1 .8-1.9 1.5-2.7 2.2l2.3 2.2c.7.8 1.4 1.4 1.9 2.1h-3l-2.9-3c-1.8 1.4-3.3 2.4-4.4 2.8-1.1.4-2.3.7-3.6.7-1.7 0-3-.5-4-1.4-1-1-1.5-2.2-1.5-3.6 0-1.1.3-2.2 1-3.2.7-1.1 2.1-2.5 4.2-4.1-1.2-1.4-1.9-2.5-2.3-3.2-.3-.7-.5-1.3-.5-2 0-1.1.4-2 1.3-2.7 1-.8 2.2-1.2 3.6-1.2.9 0 1.7.2 2.5.5.7.4 1.3.9 1.7 1.5.4.6.6 1.3.6 2s-.3 1.5-.8 2.3c-.5.8-1.5 1.9-3 3.2l3.3 3.5 2.2 2.2c1-1.1 1.9-1.8 2.6-2.4zm-9.6-5.1c1-.8 1.8-1.6 2.4-2.4.4-.6.6-1.1.6-1.5 0-.5-.2-.9-.7-1.3-.5-.4-1.1-.5-1.9-.5-.8 0-1.4.2-1.9.6-.5.4-.7.8-.7 1.3 0 .4.1.8.3 1.1.4.8 1 1.7 1.9 2.7zm-.3 2.9c-1.8 1.4-3 2.5-3.6 3.3-.6.8-.9 1.6-.9 2.3 0 .8.3 1.6 1 2.2.7.6 1.6.9 2.6.9.8 0 1.5-.2 2.3-.5 1.2-.5 2.5-1.4 4-2.6l-3.4-3.5c-.6-.6-1.2-1.3-2-2.1zm24.7-11.6h4.3c2.5 0 4.2.1 5 .3 1.2.3 2.3.9 3 1.9.8.9 1.2 2.1 1.2 3.6 0 1.4-.4 2.6-1.2 3.6-.8.9-1.8 1.6-3.2 1.9-1 .2-2.8.4-5.5.4h-1.6v10.1h-2v-21.8zm2.2 2.2v7.4h3.7c1.5 0 2.6-.1 3.3-.4.7-.3 1.2-.7 1.6-1.3.4-.6.6-1.3.6-2s-.2-1.4-.6-2c-.4-.6-.9-1-1.6-1.3-.6-.3-1.7-.4-3.2-.4h-3.8zm15.1 3.5h2.1v7.5c0 1.8.1 3.1.3 3.8.3 1 .9 1.8 1.7 2.3.8.6 1.8.9 3 .9s2.1-.3 2.9-.8c.8-.6 1.4-1.3 1.7-2.2.2-.6.3-1.9.3-3.9v-7.5h2.1v7.9c0 2.2-.3 3.9-.8 5s-1.3 2-2.3 2.6c-1 .6-2.3 1-3.9 1s-2.9-.3-3.9-1c-1.1-.6-1.8-1.5-2.4-2.7-.5-1.1-.8-2.8-.8-5.1v-7.8zm18.8 16.1v-22.3h2.1v9c.9-1.1 1.8-1.9 2.9-2.4 1.1-.5 2.3-.8 3.5-.8 2.3 0 4.2.8 5.8 2.5 1.6 1.7 2.4 3.6 2.4 6 0 2.3-.8 4.3-2.4 5.9-1.6 1.6-3.6 2.5-5.9 2.5-1.3 0-2.5-.3-3.6-.8-1.1-.6-2-1.4-2.8-2.5v3h-2zm8.3-1.6c1.1 0 2.2-.3 3.2-.8 1-.6 1.7-1.4 2.3-2.4.6-1 .9-2.1.9-3.2s-.3-2.2-.9-3.3c-.6-1-1.4-1.8-2.3-2.4-1-.6-2-.9-3.1-.9s-2.2.3-3.2.9c-1 .6-1.8 1.3-2.3 2.3-.5 1-.8 2.1-.8 3.3 0 1.9.6 3.4 1.8 4.6 1.1 1.3 2.6 1.9 4.4 1.9zm12-20.7h2.1v22.3h-2.1v-22.3zm7-.4c.5 0 .9.2 1.2.5.3.3.5.7.5 1.2s-.2.9-.5 1.2c-.3.3-.7.5-1.2.5s-.9-.2-1.2-.5c-.3-.3-.5-.7-.5-1.2s.2-.9.5-1.2c.4-.3.8-.5 1.2-.5zm-1 6.6h2.1v16.1h-2.1v-16.1zm22 3.3l-1.6 1c-1.4-1.9-3.4-2.8-5.8-2.8-2 0-3.6.6-4.9 1.9-1.3 1.3-2 2.8-2 4.6 0 1.2.3 2.3.9 3.3.6 1 1.4 1.8 2.5 2.4 1 .6 2.2.9 3.5.9 2.4 0 4.3-.9 5.8-2.8l1.6 1.1c-.8 1.2-1.8 2.1-3.1 2.7-1.3.6-2.8 1-4.4 1-2.6 0-4.7-.8-6.3-2.4-1.7-1.6-2.5-3.6-2.5-5.9 0-1.6.4-3 1.2-4.3.8-1.3 1.9-2.4 3.2-3.1 1.4-.7 2.9-1.1 4.6-1.1 1.1 0 2.1.2 3.1.5s1.8.7 2.5 1.3c.6.3 1.2 1 1.7 1.7zm12.7-9h2.2v19.6h8.4v2.1h-10.6v-21.7zm14.4-.9c.5 0 .9.2 1.2.5.3.3.5.7.5 1.2s-.2.9-.5 1.2c-.3.3-.7.5-1.2.5s-.9-.2-1.2-.5c-.3-.3-.5-.7-.5-1.2s.2-.9.5-1.2c.3-.3.7-.5 1.2-.5zm-1 6.6h2.1v16.1h-2.1v-16.1zm6.5 16.1v-22.3h2.1v9c.9-1.1 1.8-1.9 2.9-2.4 1.1-.5 2.3-.8 3.5-.8 2.3 0 4.2.8 5.8 2.5 1.6 1.7 2.4 3.6 2.4 6 0 2.3-.8 4.3-2.4 5.9-1.6 1.6-3.6 2.5-5.9 2.5-1.3 0-2.5-.3-3.6-.8-1.1-.6-2-1.4-2.8-2.5v3h-2zm8.3-1.6c1.1 0 2.2-.3 3.2-.8 1-.6 1.7-1.4 2.3-2.4.6-1 .9-2.1.9-3.2s-.3-2.2-.9-3.3c-.6-1-1.4-1.8-2.3-2.4-1-.6-2-.9-3.1-.9s-2.2.3-3.2.9c-1 .6-1.8 1.3-2.3 2.3-.5 1-.8 2.1-.8 3.3 0 1.9.6 3.4 1.8 4.6 1.1 1.3 2.6 1.9 4.4 1.9zm11.4-14.5h2.1v2.4c.6-.9 1.3-1.6 2-2.1s1.4-.7 2.2-.7c.6 0 1.2.2 1.8.5l-1.1 1.7c-.4-.2-.8-.3-1.1-.3-.7 0-1.4.3-2 .8-.6.6-1.1 1.5-1.5 2.6-.3.9-.4 2.8-.4 5.6v5.4h-2.1v-15.9zm25.9 0v16.1h-2.1v-2.8c-.9 1.1-1.8 1.9-2.9 2.4-1.1.5-2.3.8-3.5.8-2.3 0-4.2-.8-5.8-2.5-1.6-1.7-2.4-3.6-2.4-6 0-2.3.8-4.3 2.4-5.9 1.6-1.6 3.6-2.5 5.9-2.5 1.3 0 2.5.3 3.6.8 1.1.6 2 1.4 2.8 2.5v-3h2zm-8.3 1.6c-1.1 0-2.2.3-3.2.8-1 .6-1.7 1.4-2.3 2.4-.6 1-.9 2.1-.9 3.2s.3 2.2.9 3.2c.6 1 1.4 1.8 2.3 2.4 1 .6 2 .9 3.2.9 1.1 0 2.2-.3 3.2-.9 1-.6 1.8-1.3 2.3-2.3.5-1 .8-2.1.8-3.3 0-1.9-.6-3.4-1.8-4.6-1.2-1.2-2.7-1.8-4.5-1.8zm12.2-1.6h2.1v2.4c.6-.9 1.3-1.6 2-2.1s1.4-.7 2.2-.7c.6 0 1.2.2 1.8.5l-1.1 1.7c-.4-.2-.8-.3-1.1-.3-.7 0-1.4.3-2 .8-.6.6-1.1 1.5-1.5 2.6-.3.9-.4 2.8-.4 5.6v5.4h-2.1v-15.9zm8.2 0h2.1l5.5 12.3 5.4-12.3h2.2l-9.6 22h-2.2l3.1-7.2-6.5-14.8z"/><path class="st1" d="M293.9 107.6h26.2v47.2l36.9-47.2h31.4l-47.7 60.9 52.3 75.6h-30.8l-42.1-60.8v60.8h-26.2z"/></svg>